<?xml version="1.0" encoding="UTF-8"?>
<svg id="Capa_1" xmlns="http://www.w3.org/2000/svg" version="1.1" viewBox="0 0 489.58 282.65">
  <!-- Generator: Adobe Illustrator 29.1.0, SVG Export Plug-In . SVG Version: 2.1.0 Build 142)  -->
  <defs>
    <style>
      .st0 {
        fill: #353435;
      }

      .st1 {
        fill: #063;
      }

      .st2 {
        fill: #39a935;
      }
    </style>
  </defs>
  <path class="st0" d="M489.58,212.74h-50.33l4.37,4.37-22.66,16.24-21.07-20.6h-78.78l8.32,8.32-1.75,9.91c-.89-14.03-12.33-18.23-27.02-18.23h-82.31l8.45,8.45-9.54,54.11-27.4-62.56h-47.09l5.63,5.63-48.35,61.15-15.25-13.28-4.47-2.56,1.88-.2c15.05-1.64,26.31-9.12,29.11-25.01,3.54-20.09-9.3-25.73-26.63-25.73H4.19l6.92,6.92L0,282.65h27.68l3.07-17.43h19.27l19.07,17.43h61.7l8.71-11.58h42.75l4.62,11.58h56.78l2.35-13.33h44.69c14.69,0,27.83-5.46,33.88-20.68l-6,34h27.68l12.3-69.74,37.36,35.2-49.55,34.54h41l27.82-19.99,20.36,19.99h41.93l-37.2-34.95,49.32-34.95ZM34.36,244.72l1.48-8.4h41.62c3.9,0,5.41.72,4.78,4.31-.54,3.07-2.36,4.1-6.26,4.1h-41.62ZM153.71,252.1l13.76-18.14,7.26,18.14h-21.01ZM298.14,241.03c-.63,3.59-3.19,4.72-6.78,4.72h-41.21l1.66-9.43h41.21c3.59,0,5.82.72,5.11,4.71Z"/>
  <g>
    <polygon class="st2" points="359.56 85.1 306.37 85.1 204.96 0 258.15 0 359.56 85.1"/>
    <polygon class="st1" points="308.85 127.65 255.67 127.65 306.37 85.1 359.56 85.1 308.85 127.65"/>
    <polygon class="st2" points="284.62 85.1 231.44 85.1 130.02 0 183.21 0 284.62 85.1"/>
    <polygon class="st1" points="233.92 127.65 180.73 127.65 231.44 85.1 284.62 85.1 233.92 127.65"/>
    <polygon class="st2" points="306.37 170.19 359.56 170.19 308.85 127.65 255.67 127.65 306.37 170.19"/>
  </g>
</svg>